<svg width="5" height="15" viewBox="0 0 5 15" fill="none" xmlns="http://www.w3.org/2000/svg">
<path d="M2.73266 9.7671C3.1811 9.7671 3.61946 9.63412 3.99233 9.38498C4.36519 9.13584 4.6558 8.78173 4.82741 8.36743C4.99902 7.95313 5.04392 7.49724 4.95643 7.05742C4.86895 6.6176 4.653 6.2136 4.33591 5.89651C4.01882 5.57942 3.61482 5.36347 3.175 5.27599C2.73518 5.1885 2.27929 5.2334 1.86499 5.40501C1.45069 5.57662 1.09658 5.86723 0.84744 6.2401C0.598302 6.61296 0.465325 7.05132 0.465325 7.49976C0.466063 8.10087 0.705181 8.67715 1.13023 9.10219C1.55528 9.52724 2.13155 9.76636 2.73266 9.7671ZM2.73266 6.27889C2.97413 6.27889 3.21017 6.35049 3.41094 6.48464C3.61171 6.61879 3.7682 6.80947 3.8606 7.03255C3.95301 7.25564 3.97718 7.50111 3.93008 7.73794C3.88297 7.97477 3.76669 8.19231 3.59595 8.36305C3.42521 8.53379 3.20767 8.65007 2.97084 8.69718C2.73402 8.74428 2.48854 8.7201 2.26545 8.6277C2.04237 8.53529 1.85169 8.37881 1.71754 8.17804C1.58339 7.97727 1.51179 7.74123 1.51179 7.49976C1.51216 7.17608 1.6409 6.86576 1.86978 6.63688C2.09866 6.408 2.40898 6.27926 2.73266 6.27889Z" fill="#FCFCFE"/>
<path d="M2.73266 4.53468C3.1811 4.53468 3.61946 4.4017 3.99233 4.15256C4.36519 3.90342 4.6558 3.54931 4.82741 3.13501C4.99902 2.72071 5.04392 2.26482 4.95643 1.825C4.86895 1.38518 4.653 0.981181 4.33591 0.664089C4.01882 0.346996 3.61482 0.131053 3.175 0.0435673C2.73518 -0.0439184 2.27929 0.000982402 1.86499 0.172592C1.45069 0.344201 1.09658 0.634811 0.84744 1.00767C0.598302 1.38053 0.465325 1.8189 0.465325 2.26734C0.466063 2.86845 0.705181 3.44472 1.13023 3.86977C1.55528 4.29482 2.13155 4.53394 2.73266 4.53468ZM2.73266 1.04646C2.97413 1.04646 3.21017 1.11807 3.41094 1.25222C3.61171 1.38637 3.7682 1.57704 3.8606 1.80013C3.95301 2.02322 3.97718 2.26869 3.93008 2.50552C3.88297 2.74235 3.76669 2.95988 3.59595 3.13063C3.42521 3.30137 3.20767 3.41765 2.97084 3.46475C2.73402 3.51186 2.48854 3.48768 2.26545 3.39528C2.04237 3.30287 1.85169 3.14639 1.71754 2.94562C1.58339 2.74485 1.51179 2.5088 1.51179 2.26734C1.51216 1.94366 1.6409 1.63334 1.86978 1.40446C2.09866 1.17558 2.40898 1.04683 2.73266 1.04646Z" fill="#FCFCFE"/>
<path d="M2.73266 14.9995C3.1811 14.9995 3.61946 14.8665 3.99233 14.6174C4.36519 14.3683 4.6558 14.0142 4.82741 13.5999C4.99902 13.1856 5.04392 12.7297 4.95643 12.2898C4.86895 11.85 4.653 11.446 4.33591 11.1289C4.01882 10.8118 3.61482 10.5959 3.175 10.5084C2.73518 10.4209 2.27929 10.4658 1.86499 10.6374C1.45069 10.809 1.09658 11.0997 0.84744 11.4725C0.598302 11.8454 0.465325 12.2837 0.465325 12.7322C0.466063 13.3333 0.705181 13.9096 1.13023 14.3346C1.55528 14.7597 2.13155 14.9988 2.73266 14.9995ZM2.73266 11.5113C2.97413 11.5113 3.21017 11.5829 3.41094 11.7171C3.61171 11.8512 3.7682 12.0419 3.8606 12.265C3.95301 12.4881 3.97718 12.7335 3.93008 12.9704C3.88297 13.2072 3.76669 13.4247 3.59595 13.5955C3.42521 13.7662 3.20767 13.8825 2.97084 13.9296C2.73402 13.9767 2.48854 13.9525 2.26545 13.8601C2.04237 13.7677 1.85169 13.6112 1.71754 13.4105C1.58339 13.2097 1.51179 12.9736 1.51179 12.7322C1.51216 12.4085 1.6409 12.0982 1.86978 11.8693C2.09866 11.6404 2.40898 11.5117 2.73266 11.5113Z" fill="#FCFCFE"/>
</svg>
