<svg width="11" height="13" viewBox="0 0 11 13" fill="red" xmlns="http://www.w3.org/2000/svg">
<path d="M6.86884 4.57227C6.70557 4.57227 6.57324 4.70459 6.57324 4.86786V10.4546C6.57324 10.6178 6.70557 10.7502 6.86884 10.7502C7.03211 10.7502 7.16443 10.6178 7.16443 10.4546V4.86786C7.16443 4.70459 7.03211 4.57227 6.86884 4.57227Z" fill="red"/>
<path d="M3.38153 4.57227C3.21826 4.57227 3.08594 4.70459 3.08594 4.86786V10.4546C3.08594 10.6178 3.21826 10.7502 3.38153 10.7502C3.5448 10.7502 3.67713 10.6178 3.67713 10.4546V4.86786C3.67713 4.70459 3.5448 4.57227 3.38153 4.57227Z" fill="red"/>
<path d="M0.839537 3.75767V11.0405C0.839537 11.471 0.99738 11.8752 1.27311 12.1653C1.54758 12.4561 1.92954 12.6212 2.32929 12.6219H7.92204C8.3219 12.6212 8.70386 12.4561 8.97821 12.1653C9.25394 11.8752 9.41179 11.471 9.41179 11.0405V3.75767C9.95991 3.61218 10.3151 3.08265 10.2418 2.52022C10.1683 1.95789 9.68925 1.53725 9.12208 1.53713H7.60866V1.16764C7.61039 0.856917 7.48753 0.558551 7.26757 0.339049C7.04761 0.119662 6.74878 -0.00250143 6.43806 3.88387e-05H3.81327C3.50255 -0.00250143 3.20372 0.119662 2.98375 0.339049C2.76379 0.558551 2.64093 0.856917 2.64267 1.16764V1.53713H1.12924C0.562071 1.53725 0.0829995 1.95789 0.00956265 2.52022C-0.0637587 3.08265 0.291417 3.61218 0.839537 3.75767ZM7.92204 12.0307H2.32929C1.82389 12.0307 1.43073 11.5966 1.43073 11.0405V3.78365H8.8206V11.0405C8.8206 11.5966 8.42743 12.0307 7.92204 12.0307ZM3.23386 1.16764C3.23189 1.01372 3.2924 0.865577 3.40163 0.756923C3.51074 0.648269 3.65923 0.588573 3.81327 0.591228H6.43806C6.59209 0.588573 6.74058 0.648269 6.8497 0.756923C6.95893 0.865462 7.01943 1.01372 7.01747 1.16764V1.53713H3.23386V1.16764ZM1.12924 2.12832H9.12208C9.41594 2.12832 9.65415 2.36653 9.65415 2.66039C9.65415 2.95425 9.41594 3.19246 9.12208 3.19246H1.12924C0.835381 3.19246 0.597173 2.95425 0.597173 2.66039C0.597173 2.36653 0.835381 2.12832 1.12924 2.12832Z" fill="red"/>
<path d="M5.12616 4.57227C4.96289 4.57227 4.83057 4.70459 4.83057 4.86786V10.4546C4.83057 10.6178 4.96289 10.7502 5.12616 10.7502C5.28943 10.7502 5.42176 10.6178 5.42176 10.4546V4.86786C5.42176 4.70459 5.28943 4.57227 5.12616 4.57227Z" fill="red"/>
</svg>
