<svg version="1.2" xmlns="http://www.w3.org/2000/svg" viewBox="0 0 960 960" width="20" height="20">
	<title>download-svg</title>
	<style>
		.s0 { fill: #ffffff } 
	</style>
	<path id="Layer" class="s0" d="m480 623q-8 0-15-2.5-7-2.5-13-8.5l-144-144q-11-11-11-28 0-17 11-28 11-11 28.5-11.5 17.5-0.5 28.5 10.5l75 75v-286q0-17 11.5-28.5 11.5-11.5 28.5-11.5 17 0 28.5 11.5 11.5 11.5 11.5 28.5v286l75-75q11-11 28.5-10.5 17.5 0.5 28.5 11.5 11 11 11 28 0 17-11 28l-144 144q-6 6-13 8.5-7 2.5-15 2.5zm-240 177q-33 0-56.5-23.5-23.5-23.5-23.5-56.5v-80q0-17 11.5-28.5 11.5-11.5 28.5-11.5 17 0 28.5 11.5 11.5 11.5 11.5 28.5v80h480v-80q0-17 11.5-28.5 11.5-11.5 28.5-11.5 17 0 28.5 11.5 11.5 11.5 11.5 28.5v80q0 33-23.5 56.5-23.5 23.5-56.5 23.5z"/>
</svg>