<svg width="221" height="136" viewBox="0 0 221 136" fill="none" xmlns="http://www.w3.org/2000/svg">
<rect x="78" y="4.64062" width="128.202" height="34.7978" rx="17.3989" fill="#FEECEB"/>
<rect x="78" y="32.1123" width="142.854" height="29.3034" rx="14.6517" fill="#FEECEB"/>
<rect x="12" y="33" width="145" height="36" rx="18" fill="#FEECEB"/>
<rect y="87" width="119" height="32" rx="16" fill="#FEECEB"/>
<rect x="41" y="68" width="133" height="24" rx="12" fill="#FEECEB"/>
<circle cx="54.1016" cy="9.61824" r="8.24157" stroke="#EC4538" stroke-width="1.83146"/>
<circle cx="211.697" cy="72.4041" r="3.66292" fill="#FEECEB"/>
<circle cx="157.494" cy="130.494" r="5.49438" fill="#EC4538"/>
<path d="M42.474 119.486L46.796 115.164C46.9211 115.034 46.9903 114.861 46.9887 114.681C46.9872 114.501 46.9149 114.328 46.7876 114.201C46.6603 114.074 46.488 114.002 46.3079 114C46.1279 113.998 45.9544 114.068 45.8248 114.193L41.5028 118.515L37.1808 114.193C37.0513 114.068 36.8778 113.998 36.6977 114C36.5176 114.002 36.3454 114.074 36.218 114.201C36.0907 114.328 36.0185 114.501 36.0169 114.681C36.0153 114.861 36.0846 115.034 36.2097 115.164L40.5317 119.486L36.2097 123.808C36.1441 123.871 36.0918 123.947 36.0558 124.031C36.0198 124.115 36.0008 124.205 36 124.296C35.9992 124.387 36.0166 124.478 36.0511 124.562C36.0857 124.646 36.1367 124.723 36.2012 124.788C36.2656 124.852 36.3423 124.903 36.4267 124.938C36.5111 124.972 36.6016 124.99 36.6928 124.989C36.784 124.988 36.8741 124.969 36.9579 124.933C37.0417 124.897 37.1174 124.845 37.1808 124.779L41.5028 120.457L45.8248 124.779C45.9544 124.904 46.1279 124.973 46.3079 124.972C46.488 124.97 46.6603 124.898 46.7876 124.771C46.9149 124.643 46.9872 124.471 46.9887 124.291C46.9903 124.111 46.9211 123.937 46.796 123.808L42.474 119.486Z" fill="#EC4538"/>
<path d="M161.5 68.0006C161.5 95.3375 139.338 117.5 112.001 117.5C84.6624 117.5 62.5 95.3375 62.5 68.0006C62.5 40.6625 84.6625 18.5 112.001 18.5C139.338 18.5 161.5 40.6624 161.5 68.0006Z" fill="white" stroke="#EC4538" stroke-width="3"/>
<path d="M130.216 89.8589C129.283 89.8589 128.351 89.5035 127.641 88.7916L91.211 52.3621C89.7884 50.9394 89.7884 48.6339 91.211 47.2113C92.6337 45.7886 94.9402 45.7886 96.3618 47.2113L132.791 83.6409C134.214 85.0635 134.214 87.369 132.791 88.7916C132.081 89.5035 131.148 89.8589 130.216 89.8589V89.8589Z" fill="#EC4538"/>
<path d="M93.7864 89.8589C92.8547 89.8589 91.9229 89.5035 91.211 88.7916C89.7884 87.369 89.7884 85.0635 91.211 83.6409L127.641 47.2113C129.063 45.7886 131.369 45.7886 132.791 47.2113C134.214 48.6339 134.214 50.9404 132.791 52.3621L96.3618 88.7916C95.651 89.5035 94.7192 89.8589 93.7864 89.8589V89.8589Z" fill="#EC4538"/>
</svg>
