<svg width="21" height="26" viewBox="0 0 21 26" fill="none" xmlns="http://www.w3.org/2000/svg">
<path d="M20.5114 5.77149C20.4831 5.77149 20.4831 5.7432 20.4548 5.71491C20.4265 5.68662 20.4265 5.65832 20.3983 5.63003L15.5321 0.16975C15.5038 0.141458 15.4472 0.113166 15.4189 0.0848749C15.3906 0.0848749 15.3906 0.0565832 15.3624 0.0565832C15.3058 0.0282916 15.2209 0 15.136 0H3.19695C1.44287 0 0 1.44287 0 3.19695V22.803C0 24.5571 1.44287 26 3.19695 26H17.3428C19.0968 26 20.5397 24.5571 20.5397 22.803V5.96953C20.5397 5.91295 20.5114 5.82807 20.5114 5.77149ZM15.6736 1.92383L18.8139 5.46028H15.6736V1.92383ZM19.4646 22.7748C19.4646 23.963 18.531 24.9249 17.3428 24.9249H3.19695C2.00871 24.9249 1.07508 23.963 1.07508 22.803V3.16866C1.07508 1.98041 2.037 1.04679 3.19695 1.04679H14.5985V5.96953C14.5985 6.25245 14.8248 6.50707 15.136 6.50707H19.4646V22.7748Z" fill="#E23335"/>
<path d="M3.81879 6.50672H8.54349C8.82641 6.50672 9.08103 6.28039 9.08103 5.96918C9.08103 5.65797 8.8547 5.43164 8.54349 5.43164H3.81879C3.53587 5.43164 3.28125 5.65797 3.28125 5.96918C3.28125 6.28039 3.53587 6.50672 3.81879 6.50672Z" fill="#E23335"/>
<path d="M8.54349 19.4932H3.81879C3.53587 19.4932 3.28125 19.7195 3.28125 20.0307C3.28125 20.3136 3.50758 20.5682 3.81879 20.5682H8.54349C8.82641 20.5682 9.08103 20.3419 9.08103 20.0307C9.08103 19.7478 8.82641 19.4932 8.54349 19.4932Z" fill="#E23335"/>
<path d="M3.28125 9.53461C3.28125 9.81753 3.50758 10.0722 3.81879 10.0722H16.4369C16.7198 10.0722 16.9744 9.84582 16.9744 9.53461C16.9744 9.2517 16.7481 8.99707 16.4369 8.99707H3.81879C3.53587 8.99707 3.28125 9.2234 3.28125 9.53461Z" fill="#E23335"/>
<path d="M16.4369 11.6562H3.81879C3.53587 11.6562 3.28125 11.8826 3.28125 12.1938C3.28125 12.4767 3.50758 12.7313 3.81879 12.7313H16.4369C16.7198 12.7313 16.9744 12.505 16.9744 12.1938C16.9744 11.8826 16.7481 11.6562 16.4369 11.6562Z" fill="#E23335"/>
<path d="M16.4369 14.2871H3.81879C3.53587 14.2871 3.28125 14.5134 3.28125 14.8247C3.28125 15.1076 3.50758 15.3622 3.81879 15.3622H16.4369C16.7198 15.3622 16.9744 15.1359 16.9744 14.8247C16.9744 14.5134 16.7481 14.2871 16.4369 14.2871Z" fill="#E23335"/>
<path d="M16.4369 16.918H3.81879C3.53587 16.918 3.28125 17.1443 3.28125 17.4555C3.28125 17.7384 3.50758 17.9931 3.81879 17.9931H16.4369C16.7198 17.9931 16.9744 17.7667 16.9744 17.4555C16.9744 17.1726 16.7481 16.918 16.4369 16.918Z" fill="#E23335"/>
</svg>
