<svg width="77" height="78" viewBox="0 0 77 78" fill="none" xmlns="http://www.w3.org/2000/svg">
<path d="M11.1021 38.033C10.6418 37.3417 9.70766 37.1553 9.01634 37.6156C8.32561 38.0759 8.13867 39.01 8.59896 39.7013C10.5001 42.5548 13.3012 45.7057 16.9236 49.0677C17.2135 49.3363 17.5803 49.4686 17.9465 49.4686C18.3504 49.4686 18.7531 49.3069 19.0493 48.9877C19.6143 48.3793 19.5784 47.4276 18.9694 46.8626C15.5686 43.7064 12.848 40.6531 11.1021 38.033Z" fill="#E23335"/>
<path d="M9.02314 33.332C9.02314 33.3303 9.02314 33.3167 9.02314 33.315C9.02314 32.4855 8.35181 31.8183 7.52234 31.8171C7.52116 31.8171 7.52057 31.8171 7.5194 31.8171C6.69111 31.8171 6.01859 32.4931 6.01566 33.3214V33.3749C6.02976 34.1974 6.69992 34.8575 7.5194 34.8575H7.54468C8.37532 34.8434 9.03725 34.1627 9.02314 33.332Z" fill="#E23335"/>
<path d="M76.8285 59.9638L74.0873 54.7172C72.65 51.9666 70.8076 49.4588 68.6132 47.2637L61.1209 39.7714C60.2661 38.9173 59.1304 38.4464 57.9223 38.4464C56.7143 38.4464 55.578 38.9173 54.7238 39.7714C54.2394 40.2564 53.8879 40.8243 53.6698 41.4298C53.1677 41.2417 52.631 41.1435 52.079 41.1435C51.4089 41.1435 50.761 41.2887 50.1714 41.5632C51.9409 38.5522 52.8356 35.791 52.8356 33.3144C52.8356 23.7793 45.6872 16.0219 36.9005 16.0219C33.0453 16.0219 29.3042 17.5609 26.4178 20.2915C23.5308 17.5609 19.7903 16.0219 15.9345 16.0219C7.14837 16.0219 0 23.7793 0 33.3144C0 38.8161 4.35368 45.633 12.9394 53.5761C19.1783 59.3477 25.3138 63.5374 25.5719 63.7126C25.827 63.886 26.1221 63.973 26.4172 63.973C26.7129 63.973 27.008 63.886 27.2631 63.7126C27.4883 63.5597 32.5309 60.1166 38.1174 55.1827L43.2582 60.3236L41.8091 59.8909C39.3601 59.1596 36.8147 60.4882 36.0146 62.916C35.3303 64.9935 36.1557 67.2415 38.0221 68.3825L46.3856 73.4951C48.369 74.7073 50.5388 75.5027 52.8356 75.8601L60.3778 77.0335C60.456 77.0458 60.5336 77.0517 60.6106 77.0517C61.3396 77.0517 61.9792 76.5208 62.095 75.7784C62.2225 74.9577 61.6605 74.1894 60.8399 74.0612L53.2977 72.8885C51.3953 72.5922 49.5977 71.9332 47.9546 70.9291L39.5911 65.8165C38.9222 65.4074 38.6265 64.602 38.8716 63.8572C39.1585 62.9872 40.0702 62.511 40.9485 62.7732L48.0986 64.9089C48.7588 65.1064 49.4678 64.8295 49.8211 64.2381C50.1738 63.6467 50.0797 62.8913 49.5924 62.4046L34.1317 46.9439C33.5409 46.3531 33.5409 45.3914 34.1317 44.8006C34.418 44.5143 34.7989 44.3567 35.2034 44.3567C35.6084 44.3567 35.9887 44.5143 36.275 44.8006L50.3102 58.8357C50.8974 59.423 51.8498 59.4224 52.437 58.8357C53.0243 58.2484 53.0243 57.2961 52.437 56.7088L45.3845 49.6563C45.0982 49.37 44.9407 48.9891 44.9407 48.5846C44.9407 48.1796 45.0982 47.7992 45.3845 47.5129C45.6708 47.2267 46.0511 47.0691 46.4562 47.0691C46.8606 47.0691 47.2415 47.2267 47.5272 47.5129L48.8775 48.8633C48.8781 48.8638 48.8793 48.8644 48.8799 48.8656L54.5798 54.5655C55.1671 55.1528 56.1194 55.1528 56.7067 54.5655C57.0006 54.2716 57.147 53.8865 57.147 53.502C57.147 53.117 57 52.732 56.7067 52.4386L51.0068 46.7387C50.416 46.1479 50.416 45.1862 51.0068 44.5954C51.2931 44.3091 51.6734 44.1516 52.0784 44.1516C52.4829 44.1516 52.8638 44.3091 53.1501 44.5954L58.85 50.2953C59.4373 50.8825 60.3896 50.8825 60.9769 50.2953C61.5641 49.708 61.5641 48.7557 60.9769 48.1684L56.8501 44.0416C56.5638 43.7553 56.4063 43.375 56.4063 42.97C56.4063 42.5655 56.5638 42.1852 56.8501 41.8983C57.1364 41.6126 57.5167 41.4545 57.9218 41.4545C58.3262 41.4545 58.7071 41.6126 58.9934 41.8989L66.4857 49.3911C68.4644 51.3699 70.1245 53.6308 71.4208 56.111L74.1625 61.3576C74.547 62.0936 75.4558 62.3787 76.1918 61.9937C76.9284 61.6086 77.2135 60.7004 76.8285 59.9638ZM42.3694 46.6406L38.4019 42.6737C37.5477 41.8195 36.412 41.3486 35.2034 41.3486C33.9953 41.3486 32.8596 41.8195 32.0048 42.6737C30.2412 44.4373 30.2412 47.3072 32.0048 49.0708L35.9858 53.0517C31.9002 56.6453 28.0644 59.4606 26.4172 60.6334C24.5225 59.2848 19.7315 55.7624 14.9822 51.3687C7.14837 44.1216 3.00749 37.8785 3.00749 33.315C3.00749 25.4382 8.80672 19.0306 15.9345 19.0306C19.4963 19.0306 22.8154 20.5996 25.2803 23.4495C25.5654 23.7793 25.981 23.9692 26.4172 23.9692C26.854 23.9692 27.269 23.7793 27.5547 23.4495C30.0196 20.5996 33.3387 19.0306 36.9005 19.0306C44.0283 19.0306 49.8275 25.4382 49.8275 33.315C49.8275 36.373 47.9852 40.1618 44.354 44.5778C43.9548 44.7876 43.5856 45.0586 43.2576 45.3867C42.8867 45.757 42.5886 46.1808 42.3694 46.6406Z" fill="#E23335"/>
<path d="M26.4171 3.00808C26.8127 3.00808 27.2007 2.847 27.4805 2.56718C27.7603 2.28736 27.9208 1.89937 27.9208 1.50374C27.9208 1.10694 27.7603 0.720127 27.4805 0.440894C27.2007 0.15931 26.8127 0 26.4171 0C26.0214 0 25.6335 0.15931 25.3542 0.440894C25.0744 0.720127 24.9133 1.10694 24.9133 1.50374C24.9133 1.89937 25.0744 2.28736 25.3542 2.56718C25.6335 2.847 26.022 3.00808 26.4171 3.00808Z" fill="#E23335"/>
<path d="M34.9064 12.8076C35.2915 12.8076 35.6759 12.6606 35.9699 12.3673L39.6475 8.68964C40.2348 8.10237 40.2348 7.15004 39.6475 6.56277C39.0602 5.9755 38.1079 5.9755 37.5206 6.56277L33.843 10.2404C33.2557 10.8277 33.2557 11.78 33.843 12.3673C34.1369 12.6612 34.5214 12.8076 34.9064 12.8076Z" fill="#E23335"/>
<path d="M16.8551 12.3561C17.149 12.6495 17.5334 12.7964 17.9185 12.7964C18.3035 12.7964 18.6886 12.6495 18.9819 12.3561C19.5692 11.7689 19.5692 10.8165 18.9819 10.2293L15.3149 6.56161C14.7276 5.97434 13.7753 5.97434 13.1874 6.56161C12.6001 7.14888 12.6001 8.10121 13.1874 8.68848L16.8551 12.3561Z" fill="#E23335"/>
<path d="M26.4171 6.12161C25.587 6.12161 24.9133 6.79471 24.9133 7.62536V12.3318C24.9133 13.1624 25.587 13.8355 26.4171 13.8355C27.2477 13.8355 27.9214 13.1624 27.9214 12.3318V7.62536C27.9214 6.79471 27.2477 6.12161 26.4171 6.12161Z" fill="#E23335"/>
</svg>
