<svg width="20" height="26" viewBox="0 0 20 26" fill="none" xmlns="http://www.w3.org/2000/svg">
<path d="M17.0625 10.5625V7.3125C17.0625 3.25 13.8125 0 9.75 0C5.6875 0 2.4375 3.25 2.4375 7.3125V10.5625C1.05625 10.5625 0 11.6187 0 13V23.5625C0 24.8625 1.05625 26 2.4375 26H17.0625C18.4438 26 19.5 24.8625 19.5 23.5625V13C19.5 11.6187 18.4438 10.5625 17.0625 10.5625ZM4.0625 7.3125C4.0625 4.14375 6.58125 1.625 9.75 1.625C12.9187 1.625 15.4375 4.14375 15.4375 7.3125V10.5625H4.0625V7.3125ZM10.5625 19.3375V21.125C10.5625 21.6125 10.2375 21.9375 9.75 21.9375C9.2625 21.9375 8.9375 21.6125 8.9375 21.125V19.3375C7.9625 19.0125 7.3125 18.1187 7.3125 17.0625C7.3125 15.6812 8.36875 14.625 9.75 14.625C11.1313 14.625 12.1875 15.6812 12.1875 17.0625C12.1875 18.1187 11.5375 19.0125 10.5625 19.3375Z" fill="#353535"/>
</svg>
