<svg width="17" height="19" viewBox="0 0 17 19" fill="none" xmlns="http://www.w3.org/2000/svg">
<path d="M16.18 13.5581L15.0578 11.9438C14.9047 11.7243 14.8222 11.4633 14.8216 11.1956V6.5625C14.8216 4.82202 14.1302 3.15282 12.8995 1.92211C11.6688 0.691404 9.99958 0 8.25909 0C6.51861 0 4.84941 0.691404 3.6187 1.92211C2.388 3.15282 1.69659 4.82202 1.69659 6.5625V11.1956C1.69596 11.4633 1.61353 11.7243 1.46034 11.9438L0.338155 13.5581C0.168239 13.7464 0.056504 13.9799 0.0164631 14.2303C-0.0235778 14.4807 0.00978989 14.7374 0.112531 14.9692C0.215273 15.2011 0.382987 15.3982 0.595393 15.5368C0.8078 15.6753 1.0558 15.7494 1.30941 15.75H5.04347C5.19409 16.4918 5.59651 17.1586 6.18255 17.6376C6.76859 18.1166 7.5022 18.3783 8.25909 18.3783C9.01598 18.3783 9.7496 18.1166 10.3356 17.6376C10.9217 17.1586 11.3241 16.4918 11.4747 15.75H15.2088C15.4624 15.7494 15.7104 15.6753 15.9228 15.5368C16.1352 15.3982 16.3029 15.2011 16.4057 14.9692C16.5084 14.7374 16.5418 14.4807 16.5017 14.2303C16.4617 13.9799 16.3499 13.7464 16.18 13.5581ZM8.25909 17.0625C7.85291 17.0614 7.45702 16.9346 7.12571 16.6996C6.79439 16.4647 6.54386 16.133 6.40847 15.75H10.1097C9.97433 16.133 9.7238 16.4647 9.39248 16.6996C9.06116 16.9346 8.66528 17.0614 8.25909 17.0625ZM1.30941 14.4375C1.33907 14.41 1.36549 14.3791 1.38816 14.3456L2.53659 12.6919C2.84296 12.253 3.00783 11.7309 3.00909 11.1956V6.5625C3.00909 5.17011 3.56222 3.83476 4.54678 2.85019C5.53135 1.86562 6.86671 1.3125 8.25909 1.3125C9.65148 1.3125 10.9868 1.86562 11.9714 2.85019C12.956 3.83476 13.5091 5.17011 13.5091 6.5625V11.1956C13.5104 11.7309 13.6752 12.253 13.9816 12.6919L15.13 14.3456C15.1527 14.3791 15.1791 14.41 15.2088 14.4375H1.30941Z" fill="#353535"/>
</svg>
