<svg width="12" height="12" viewBox="0 0 12 12" fill="none" xmlns="http://www.w3.org/2000/svg">
<path d="M10.7369 6.09583L0.902534 6.09583C0.815593 6.09583 0.735843 6.06386 0.68083 6.00695C0.625816 5.95004 0.600044 5.87285 0.609184 5.79236C0.618324 5.71188 0.661627 5.63469 0.729567 5.57778C0.797506 5.52086 0.884517 5.48889 0.971459 5.48889L10.8058 5.48889C10.8928 5.48889 10.9725 5.52086 11.0275 5.57778C11.0826 5.63469 11.1083 5.71188 11.0992 5.79236C11.09 5.87285 11.0467 5.95004 10.9788 6.00695C10.9109 6.06386 10.8239 6.09583 10.7369 6.09583Z" fill="#353535"/>
<path d="M6.24846 1.36398L6.24846 10.2953C6.24846 10.3743 6.21661 10.4537 6.15992 10.516C6.10322 10.5784 6.02633 10.6186 5.94616 10.6279C5.86598 10.6371 5.78909 10.6146 5.7324 10.5653C5.67571 10.516 5.64386 10.444 5.64386 10.365L5.64386 1.43367C5.64386 1.35472 5.67571 1.27532 5.7324 1.21295C5.78909 1.15059 5.86598 1.11036 5.94616 1.10112C6.02633 1.09187 6.10322 1.11438 6.15992 1.16367C6.21661 1.21297 6.24846 1.28502 6.24846 1.36398Z" fill="#353535"/>
</svg>
