<svg width="16" height="16" viewBox="0 0 16 16" fill="none" xmlns="http://www.w3.org/2000/svg">
<path d="M14.3333 12H12.3333C12.1493 12 12 11.8507 12 11.6667C12 11.4827 12.1493 11.3333 12.3333 11.3333H14.3333C14.8847 11.3333 15.3333 10.8847 15.3333 10.3333V5.66667C15.3333 5.11533 14.8847 4.66667 14.3333 4.66667H1.66667C1.11533 4.66667 0.666667 5.11533 0.666667 5.66667V10.3333C0.666667 10.8847 1.11533 11.3333 1.66667 11.3333H3.66667C3.85067 11.3333 4 11.4827 4 11.6667C4 11.8507 3.85067 12 3.66667 12H1.66667C0.747333 12 0 11.252 0 10.3333V5.66667C0 4.748 0.747333 4 1.66667 4H14.3333C15.2527 4 16 4.748 16 5.66667V10.3333C16 11.252 15.2527 12 14.3333 12Z" fill="#353535"/>
<path d="M9.66732 14.0002H5.66732C5.48332 14.0002 5.33398 13.8508 5.33398 13.6668C5.33398 13.4828 5.48332 13.3335 5.66732 13.3335H9.66732C9.85132 13.3335 10.0007 13.4828 10.0007 13.6668C10.0007 13.8508 9.85132 14.0002 9.66732 14.0002Z" fill="#353535"/>
<path d="M9.66732 12.6667H5.66732C5.48332 12.6667 5.33398 12.5173 5.33398 12.3333C5.33398 12.1493 5.48332 12 5.66732 12H9.66732C9.85132 12 10.0007 12.1493 10.0007 12.3333C10.0007 12.5173 9.85132 12.6667 9.66732 12.6667Z" fill="#353535"/>
<path d="M7.00065 11.3332H5.66732C5.48332 11.3332 5.33398 11.1838 5.33398 10.9998C5.33398 10.8158 5.48332 10.6665 5.66732 10.6665H7.00065C7.18465 10.6665 7.33398 10.8158 7.33398 10.9998C7.33398 11.1838 7.18465 11.3332 7.00065 11.3332Z" fill="#353535"/>
<path d="M12.334 4.66667C12.15 4.66667 12.0007 4.51733 12.0007 4.33333V1.66667C12.0007 1.11533 11.552 0.666667 11.0007 0.666667H5.00065C4.44932 0.666667 4.00065 1.11533 4.00065 1.66667V4.33333C4.00065 4.51733 3.85132 4.66667 3.66732 4.66667C3.48332 4.66667 3.33398 4.51733 3.33398 4.33333V1.66667C3.33398 0.748 4.08132 0 5.00065 0H11.0007C11.92 0 12.6673 0.748 12.6673 1.66667V4.33333C12.6673 4.51733 12.518 4.66667 12.334 4.66667Z" fill="#353535"/>
<path d="M11.0007 15.9998H5.00065C4.08132 15.9998 3.33398 15.2518 3.33398 14.3332V8.99984C3.33398 8.81584 3.48332 8.6665 3.66732 8.6665H12.334C12.518 8.6665 12.6673 8.81584 12.6673 8.99984V14.3332C12.6673 15.2518 11.92 15.9998 11.0007 15.9998ZM4.00065 9.33317V14.3332C4.00065 14.8845 4.44932 15.3332 5.00065 15.3332H11.0007C11.552 15.3332 12.0007 14.8845 12.0007 14.3332V9.33317H4.00065Z" fill="#353535"/>
</svg>
