<svg width="16" height="16" viewBox="0 0 16 16" fill="none" xmlns="http://www.w3.org/2000/svg">
<path d="M15.8627 3.14981L12.8502 0.137313C12.7623 0.0494063 12.6431 0 12.5188 0H11.5146H3.48122H1.72394C0.773375 0 0 0.773375 0 1.72397V14.276C0 15.2266 0.773375 16 1.72394 16H3.48122H12.5187H14.276C15.2266 16 16 15.2266 16 14.276V3.48125C16 3.35694 15.9506 3.23772 15.8627 3.14981ZM11.0458 0.9375V4.73644C11.0458 5.17009 10.693 5.52291 10.2594 5.52291H4.73644C4.30278 5.52291 3.94997 5.17009 3.94997 4.73644V0.9375H11.0458ZM3.94997 15.0625V10.2594C3.94997 9.82575 4.30278 9.47294 4.73644 9.47294H11.2635C11.6972 9.47294 12.05 9.82575 12.05 10.2594V15.0625H3.94997ZM15.0625 14.276C15.0625 14.7097 14.7097 15.0625 14.276 15.0625H12.9875V10.2594C12.9875 9.30881 12.2141 8.53544 11.2635 8.53544H4.73644C3.78584 8.53544 3.01247 9.30881 3.01247 10.2594V15.0625H1.72394C1.29031 15.0625 0.9375 14.7097 0.9375 14.276V1.72397C0.9375 1.29031 1.29031 0.9375 1.72394 0.9375H3.01247V4.73644C3.01247 5.68703 3.78584 6.46041 4.73644 6.46041H10.2594C11.21 6.46041 11.9833 5.68703 11.9833 4.73644V0.9375H12.3246L15.0625 3.67544V14.276Z" fill="#353535"/>
<path d="M9.50586 4.45303C9.76473 4.45303 9.97461 4.24315 9.97461 3.98428V2.47803C9.97461 2.21915 9.76473 2.00928 9.50586 2.00928C9.24698 2.00928 9.03711 2.21915 9.03711 2.47803V3.98428C9.03711 4.24315 9.24698 4.45303 9.50586 4.45303Z" fill="#353535"/>
</svg>
