<svg width="14" height="14" viewBox="0 0 14 14" fill="none" xmlns="http://www.w3.org/2000/svg">
<path d="M13.8677 13.2388L10.253 9.6819C11.1996 8.65347 11.7812 7.29336 11.7812 5.7967C11.7807 2.59507 9.14362 0 5.89036 0C2.63709 0 0 2.59507 0 5.7967C0 8.99833 2.63709 11.5934 5.89036 11.5934C7.29599 11.5934 8.58521 11.1072 9.59788 10.2989L13.2266 13.8699C13.4034 14.0441 13.6905 14.0441 13.8673 13.8699C14.0445 13.6957 14.0445 13.413 13.8677 13.2388ZM5.89036 10.7015C3.13774 10.7015 0.906314 8.50558 0.906314 5.7967C0.906314 3.08782 3.13774 0.891856 5.89036 0.891856C8.643 0.891856 10.8744 3.08782 10.8744 5.7967C10.8744 8.50558 8.643 10.7015 5.89036 10.7015Z" fill="#353535"/>
</svg>
