<svg width="17" height="20" viewBox="0 0 17 20" fill="none" xmlns="http://www.w3.org/2000/svg">
<mask id="path-1-inside-1_271_4637" fill="white">
<path d="M8.54145 10.0666C9.80985 10.0666 10.9082 9.6117 11.8056 8.71415C12.703 7.81674 13.1579 6.7187 13.1579 5.45016C13.1579 4.18206 12.703 3.08387 11.8054 2.18617C10.9079 1.2889 9.8097 0.833984 8.54145 0.833984C7.27291 0.833984 6.17488 1.2889 5.27746 2.18631C4.38005 3.08373 3.92499 4.18191 3.92499 5.45016C3.92499 6.7187 4.38005 7.81688 5.27761 8.71429C6.17517 9.61156 7.27335 10.0666 8.54145 10.0666V10.0666Z"/>
</mask>
<path d="M8.54145 10.0666C9.80985 10.0666 10.9082 9.6117 11.8056 8.71415C12.703 7.81674 13.1579 6.7187 13.1579 5.45016C13.1579 4.18206 12.703 3.08387 11.8054 2.18617C10.9079 1.2889 9.8097 0.833984 8.54145 0.833984C7.27291 0.833984 6.17488 1.2889 5.27746 2.18631C4.38005 3.08373 3.92499 4.18191 3.92499 5.45016C3.92499 6.7187 4.38005 7.81688 5.27761 8.71429C6.17517 9.61156 7.27335 10.0666 8.54145 10.0666V10.0666Z" stroke="#353535" stroke-width="2.6" mask="url(#path-1-inside-1_271_4637)"/>
<mask id="path-2-inside-2_271_4637" fill="white">
<path d="M16.619 15.5717C16.5931 15.1983 16.5407 14.7909 16.4637 14.3607C16.3859 13.9272 16.2857 13.5175 16.1658 13.143C16.0419 12.7559 15.8735 12.3737 15.6653 12.0074C15.4491 11.6272 15.1953 11.2961 14.9104 11.0237C14.6126 10.7387 14.2479 10.5096 13.8261 10.3424C13.4059 10.1762 12.9401 10.0919 12.4419 10.0919C12.2463 10.0919 12.0571 10.1722 11.6916 10.4101C11.4667 10.5568 11.2037 10.7264 10.91 10.914C10.659 11.074 10.3188 11.2239 9.89872 11.3596C9.48884 11.4922 9.07267 11.5595 8.66191 11.5595C8.25116 11.5595 7.83513 11.4922 7.42482 11.3596C7.00514 11.224 6.66501 11.0742 6.41423 10.9142C6.12338 10.7283 5.86017 10.5587 5.6319 10.41C5.26692 10.1721 5.07755 10.0918 4.8819 10.0918C4.38355 10.0918 3.91795 10.1762 3.49784 10.3426C3.07641 10.5094 2.71157 10.7386 2.4134 11.0239C2.1287 11.2964 1.8747 11.6273 1.65886 12.0074C1.45078 12.3737 1.28232 12.7558 1.15832 13.1432C1.03856 13.5176 0.938393 13.9272 0.860599 14.3607C0.783537 14.7903 0.731187 15.1978 0.705304 15.5722C0.67986 15.9389 0.666992 16.3195 0.666992 16.704C0.666992 17.7045 0.98504 18.5144 1.61222 19.1118C2.23164 19.7012 3.05125 20.0003 4.04795 20.0003H13.2768C14.2734 20.0003 15.0928 19.7014 15.7123 19.1118C16.3397 18.5149 16.6577 17.7048 16.6577 16.7038C16.6576 16.3176 16.6446 15.9367 16.619 15.5717V15.5717Z"/>
</mask>
<path d="M16.619 15.5717C16.5931 15.1983 16.5407 14.7909 16.4637 14.3607C16.3859 13.9272 16.2857 13.5175 16.1658 13.143C16.0419 12.7559 15.8735 12.3737 15.6653 12.0074C15.4491 11.6272 15.1953 11.2961 14.9104 11.0237C14.6126 10.7387 14.2479 10.5096 13.8261 10.3424C13.4059 10.1762 12.9401 10.0919 12.4419 10.0919C12.2463 10.0919 12.0571 10.1722 11.6916 10.4101C11.4667 10.5568 11.2037 10.7264 10.91 10.914C10.659 11.074 10.3188 11.2239 9.89872 11.3596C9.48884 11.4922 9.07267 11.5595 8.66191 11.5595C8.25116 11.5595 7.83513 11.4922 7.42482 11.3596C7.00514 11.224 6.66501 11.0742 6.41423 10.9142C6.12338 10.7283 5.86017 10.5587 5.6319 10.41C5.26692 10.1721 5.07755 10.0918 4.8819 10.0918C4.38355 10.0918 3.91795 10.1762 3.49784 10.3426C3.07641 10.5094 2.71157 10.7386 2.4134 11.0239C2.1287 11.2964 1.8747 11.6273 1.65886 12.0074C1.45078 12.3737 1.28232 12.7558 1.15832 13.1432C1.03856 13.5176 0.938393 13.9272 0.860599 14.3607C0.783537 14.7903 0.731187 15.1978 0.705304 15.5722C0.67986 15.9389 0.666992 16.3195 0.666992 16.704C0.666992 17.7045 0.98504 18.5144 1.61222 19.1118C2.23164 19.7012 3.05125 20.0003 4.04795 20.0003H13.2768C14.2734 20.0003 15.0928 19.7014 15.7123 19.1118C16.3397 18.5149 16.6577 17.7048 16.6577 16.7038C16.6576 16.3176 16.6446 15.9367 16.619 15.5717V15.5717Z" stroke="#353535" stroke-width="2.6" mask="url(#path-2-inside-2_271_4637)"/>
</svg>
